/* XPM */
static char *dummy[]={
"32 32 418 2",
"e# c #009ddc",
"en c #009edb",
"eq c #009fdd",
"ed c #009fde",
"et c #00a0df",
"em c #00a1e0",
"ej c #00a3e1",
"eu c #00a3e2",
"ea c #00a4e2",
"er c #00a4e4",
"ec c #00a5e6",
"ee c #00a5e7",
"ek c #00a6e7",
"es c #00a8eb",
"ep c #00aaed",
"eb c #00abee",
"ei c #00acee",
"ev c #00acef",
"eo c #00adef",
"el c #00aff3",
"eh c #00aff4",
"cP c #00b0f4",
"e. c #00b1f6",
"ex c #00b1f7",
"ef c #00b3f7",
"ey c #00b4f7",
"by c #00b5ff",
"aO c #00b6ff",
"eg c #00b7fd",
"av c #00b7ff",
"ew c #00b8fd",
"b7 c #00b8fe",
"as c #00b8ff",
"cN c #00b9fe",
".h c #00b9ff",
"cE c #00bafc",
"cO c #00bafe",
"Qt c #00baff",
"d9 c #00bbff",
"cQ c #00bcfd",
"dd c #00bcff",
"cj c #00bdff",
"d8 c #00beff",
"cL c #00bfff",
"cC c #00c1ff",
"cb c #00c2ff",
"cc c #00c5ff",
"ci c #01b7fc",
"cs c #01b7fd",
"c5 c #01b8fd",
"cM c #01b9fe",
"dF c #01bafe",
".# c #01baff",
".a c #01bbff",
"c3 c #01bcfe",
"eF c #01bcff",
"eE c #01bdff",
"eA c #01beff",
"a2 c #02b9fd",
"dG c #02bafe",
"#J c #02baff",
".b c #02bbff",
"c4 c #02bcff",
"bL c #02bdfe",
"eB c #02bdff",
"eC c #02beff",
"eD c #02bfff",
"cD c #03b9fd",
"bM c #03bafe",
"#8 c #03baff",
"bZ c #03bbfe",
".c c #03bbff",
"ez c #03bfff",
"ct c #04b9fc",
"bo c #04b9fe",
".i c #04bbff",
"bV c #04bcfe",
"d7 c #0591c5",
"cS c #05b1f1",
"cR c #05b5f4",
".F c #05bbff",
"dE c #06a3dd",
"b1 c #06b4f3",
"b0 c #06b7f7",
"bQ c #06b9fd",
"cZ c #06bcfe",
".d c #06bcff",
"b6 c #07b9fd",
"c9 c #07bbfd",
".Q c #07bcff",
"c6 c #07bdfe",
"bK c #07bdff",
"a1 c #08b9fc",
".g c #08bcff",
".V c #09bcff",
"b2 c #09beff",
"c2 c #0abcfd",
".R c #0abdfe",
"cW c #0abffe",
"bG c #0bbdfe",
"dc c #0bbefe",
"#x c #0cbdff",
"cT c #0dbdfe",
"aY c #0dbdff",
".e c #0dbefe",
"bW c #0eb0ea",
"da c #0ebefe",
"d# c #0ebeff",
"ca c #0faae2",
"bY c #0fbdfd",
".s c #0fbefe",
"cB c #109bcc",
"bs c #10befe",
"#z c #10beff",
"a9 c #10bfff",
"cY c #11befe",
".9 c #12bffe",
"bH c #12c2ff",
"#l c #13bffe",
"cX c #13bfff",
"c7 c #13c0ff",
"d5 c #1491bf",
"bR c #14bbfb",
"aj c #14bbfc",
"bX c #14befa",
"cU c #14befd",
"c8 c #14bfff",
"ak c #14c0ff",
"cK c #1582a7",
"dO c #158bb6",
"d. c #15bfff",
".S c #15c0fe",
".t c #15c0ff",
"bJ c #16bffe",
".B c #16c0fe",
"c0 c #16c1ff",
".8 c #17c0fe",
".f c #17c0ff",
"db c #17c1ff",
"bC c #18bcfb",
"bx c #18c0fe",
"cV c #18c3ff",
".C c #19c1fe",
"#j c #1ac1fe",
".j c #1bc1fe",
"au c #1cbdfb",
"bt c #1dc2fe",
"#9 c #1dc2ff",
"cu c #1e80a0",
"cz c #1e9ed0",
"cF c #1f7b99",
"br c #1fc1fd",
".r c #1fc2fe",
"bk c #1fc3fe",
"ay c #20c2fe",
"aX c #20c3ff",
"c1 c #20c6ff",
"#K c #21c3fe",
"cv c #237690",
"cd c #239bc2",
"at c #24befa",
"aI c #24c3fe",
"aH c #24c4fe",
"#7 c #25c4fe",
"bF c #26c0fc",
".E c #26c4fe",
"cH c #27728a",
"cI c #277e9b",
".q c #27c5fe",
"dX c #2897c0",
".P c #28c5fe",
"ah c #28c5ff",
"aJ c #29c5fe",
".D c #2ac5fe",
"a8 c #2bc6fe",
"## c #2bc6ff",
"d4 c #2c97bd",
"aM c #2cbff8",
".p c #2cc6fe",
"aL c #2dc0f9",
".A c #2dc6fe",
"#Y c #2dc6ff",
"cA c #2e626f",
"cw c #2e8db2",
"bj c #2ec6fe",
".U c #2ec7fe",
"dP c #2f9dc5",
".G c #30c7fe",
"bn c #31bff8",
"ai c #31c0f8",
"cr c #3396b8",
".o c #33c8fe",
"cJ c #347e98",
"bz c #35c6fc",
".m c #35c8fe",
"#m c #35c8ff",
"#k c #36c9fe",
"ch c #37bdf2",
"cG c #38819b",
".n c #38c9fe",
"dT c #3a9abc",
"dt c #3abfee",
".7 c #3acafd",
"cp c #3b6771",
"dK c #3b9dc1",
"#y c #3bcafe",
"bd c #3bcaff",
"cm c #3c676f",
"cn c #3c859a",
"bc c #3cc9fc",
"ar c #3ccafe",
"dQ c #3d94b4",
"bN c #3dc6fb",
"co c #3f7f90",
".z c #40cbfe",
".W c #42ccfe",
"dr c #43b8e2",
"bi c #43ccfe",
"dJ c #448fab",
"b8 c #44beef",
"#L c #44ccfe",
"#. c #45cdfe",
"d6 c #469cbb",
"dR c #46a2c4",
"dU c #46a4c6",
"#V c #46cdff",
"dN c #4792ad",
".u c #47cdfe",
"ds c #48c4f0",
"#X c #48cdfe",
".T c #48cefd",
"#w c #48cefe",
"d0 c #4996b1",
".X c #49cefe",
"a5 c #49ceff",
"cy c #4a4c47",
"ck c #4a7f8c",
"d3 c #4b97b2",
"#M c #4bcefe",
".Y c #4bceff",
"cx c #4c4236",
"bI c #4ccffd",
".6 c #4ccffe",
"dS c #4da7c7",
".k c #4dcffe",
"dp c #50adcf",
"dH c #50c4ed",
"aZ c #50cefd",
"#W c #50cffe",
"#A c #50d0fe",
"#a c #51d0ff",
"#i c #53d1fd",
"de c #54cbf5",
"bu c #54d0fc",
"aA c #54d1fe",
"cl c #566f6f",
".O c #56d1fe",
"am c #56d1ff",
"al c #58d2fd",
"d1 c #5aa7c2",
"az c #5ad2fe",
"dY c #5caac6",
"aw c #5cc7f5",
".H c #5cd3fe",
"dW c #5da5bf",
"ba c #5dc6f4",
".Z c #60d4fe",
"dM c #619eb3",
"do c #61bad9",
"bl c #62d2fb",
"dh c #63b6d3",
"bU c #64cdf7",
"d2 c #65a1b6",
"dx c #65bddc",
"aW c #65d5fe",
"dZ c #66a1b5",
"c# c #676759",
"dL c #67aac2",
"dA c #69b9d5",
"cq c #6a6a5e",
".y c #6ad6fe",
".5 c #6ad7fe",
"dV c #6bb2cb",
".l c #6bd7fe",
"ce c #6c7166",
".N c #6cd7fe",
"#6 c #6dd7fe",
".I c #6dd8fe",
"dB c #6ec3df",
"du c #6ecae9",
"aP c #6fd8fe",
".v c #70d8fe",
"aQ c #72d9fe",
"dI c #73a6b9",
"dk c #74c3de",
"ag c #76dafe",
"#B c #77dafe",
"dn c #79c3dc",
"#n c #79dbfe",
"b3 c #7bd0f4",
"dq c #7cc6df",
"#Z c #7ddcfe",
"#h c #7fdcfe",
"#v c #80ddfe",
"#U c #81ddfe",
"b5 c #83cef1",
"bB c #83cef2",
"bv c #83ddfd",
"be c #85defe",
".J c #87dffe",
"a4 c #88d9fa",
"dl c #89c8dd",
"ax c #89d4f4",
"c. c #8ab5c7",
"#b c #8ce0fe",
"b# c #8dd0f1",
"aB c #8de0fe",
"dy c #8ed0e6",
"bw c #8fe1fd",
"#I c #90e1fe",
"a. c #93e2fe",
"dg c #94c6d6",
"aG c #94e2fe",
"cf c #96cbe7",
".4 c #96e3fe",
"dv c #99cfe0",
"bh c #9ae4fe",
".0 c #9be4fe",
"bP c #9cd0ed",
"bS c #9cd3ef",
"#N c #9ce4fe",
"dD c #9ecddc",
"di c #9ed4e5",
"dw c #9fcfde",
"dC c #a0cedd",
"cg c #a0d1ec",
"df c #a0d4e5",
"aK c #a0d6f1",
"#C c #a0e5fe",
"dj c #a1d0df",
"aV c #a1e5fe",
"bg c #a2e6fe",
"b9 c #a3d5f2",
"dz c #a4d1df",
"bf c #a4e6fe",
".w c #a4e7fe",
"bp c #a6d4ef",
"#u c #a6e7fe",
"#H c #a8e7fe",
".M c #a8e8fe",
"dm c #a9d1de",
"a7 c #aae8fe",
"aF c #abe8fe",
".K c #ace8fe",
"#o c #ace9fe",
"b. c #ade0f7",
"aR c #ade9fe",
"bq c #aeddf3",
"#p c #aee9fe",
"#c c #afe9fe",
".1 c #b5ebfe",
"a3 c #b7daf0",
".x c #b7ecfe",
"af c #b8ecfe",
"bD c #b9d6ec",
".L c #b9ecfe",
"a0 c #badcf1",
".2 c #baecfe",
"bE c #bcdff3",
"#G c #bcedfe",
"#T c #bdedfe",
"#g c #beedfe",
"ae c #bfeefe",
"#5 c #c0eefe",
".3 c #c1eefe",
"#O c #c2eefe",
"bA c #c4dff1",
"aN c #c4e1f2",
"an c #c8f0fe",
"#d c #cbf1fe",
"#t c #ccf1fe",
"bO c #cfe1f1",
"aa c #cff2fe",
"#q c #d1f3fe",
"aE c #d3f3ff",
"a# c #d4f3fe",
"aU c #d5f4ff",
"#e c #d7f4fe",
"#P c #d7f4ff",
"bT c #d8dfec",
"#f c #d8f4fe",
"aS c #dbf5fe",
"aC c #dbf5ff",
"#D c #dcf6ff",
"b4 c #dde0ec",
"aD c #ddf6ff",
"#0 c #def6ff",
"ab c #e0f7ff",
"a6 c #e1f7ff",
"aq c #e2f7fe",
"#F c #e3f7ff",
"#S c #e4f8ff",
"bm c #e5e4ee",
"bb c #e5e7f0",
"#1 c #e5f8ff",
"#E c #e6f8ff",
"#Q c #e8f9ff",
"#R c #eaf9ff",
"ap c #ebfaff",
"#r c #edfaff",
"#4 c #effbff",
"#s c #f0fbff",
"aT c #f1fbff",
"#2 c #f7fdff",
"ao c #f8fdff",
"ac c #fbfeff",
"#3 c #fdfeff",
"ad c #ffffff",
"QtQtQtQtQtQtQtQtQtQtQtQtQtQtQtQtQtQtQtQtQtQtQtQtQtQtQtQtQtQtQtQt",
"QtQtQtQtQtQtQtQtQtQtQtQt.#.#.a.b.c.#.#Qt.#.#QtQtQtQtQtQtQtQtQtQt",
"QtQtQtQtQtQtQtQtQtQtQt.#.c.d.e.f.g.b.#Qt.h.h.hQtQtQtQtQtQtQtQtQt",
"QtQtQtQtQtQtQtQtQtQt.c.i.g.j.k.l.m.n.o.p.q.r.sQtQtQtQtQtQtQtQtQt",
"QtQtQtQtQtQtQtQtQt.#.#.t.u.v.w.x.y.z.A.f.B.C.D.E.#QtQtQtQtQtQtQt",
"QtQtQtQtQtQtQtQtQt.F.G.H.I.J.K.L.M.N.O.P.Q.R.S.T.UQtQtQtQtQtQtQt",
"QtQtQtQtQtQtQtQt.V.W.X.Y.Z.0.1.2.3.4.5.6.7.8.j.E.U.9.hQtQtQtQtQt",
"QtQtQtQtQtQtQt.i#..G###a#b#c#d#e#f#g#h.k#i.P#j.F.D.S.h.#QtQtQtQt",
"QtQtQtQtQt.#.h.o#k#l#m#n#o#p#q#r#s#t#u#v#w.F.h#x#y.FQtQtQtQtQtQt",
"QtQtQtQtQtQt.Q.X#z.D#A#B#C.2#D#E#F#G#H#I.N.t#J.z#K.h.#QtQtQtQtQt",
"QtQtQtQt.#.h.f#L.d#M.J#N#O#P#Q#R#S#T#U#V#h#W#X.A.h.#QtQtQtQtQtQt",
"QtQtQtQtQt.h.f.u#x#Y#Z#0#1#S#2#3#4#5#b#6.M#U#7.h.#.#.#QtQtQtQtQt",
"QtQtQtQtQt.h#8.6.E#9a.a#aaabacadac#0aeafagah.FQt.#.h.hQtQtQtQtQt",
"QtQtQt.#.haiajakal.Gam#Can#S#2ao#4apaq#N#war#7.Fasatau.h.#QtQtQt",
"QtQtQt#8avawax.hayaz#MaAaB#taC#EaDaEaFaG#yaHaIaJ.RaKaL.h#JQtQtQt",
"QtQtQt#J.haMaN.PaO#YaPaQaR#taSaTaU.3aVaWaXaY#z.EaZa0a1Qt.#QtQtQt",
"QtQtQt.#Qta2a3a4av#z.ja5#N#ga6aq#ta7#v#X.oa8.oa9b.b#av.bQtQtQtQt",
"QtQtQtQt.casbabbbcav.c#Kbdbe#Gbfbgbh#nbibjbk.hblbmbn.h#JQtQtQtQt",
"QtQtQtQt.#Qtbobpbqbravbsbtbubvbw#Barbx.i#JbybzbAbBas#JQtQtQtQtQt",
"QtQtQtQtQt.#.hbCbDbEbFaObGbHbI#AbJbKbLbMaObNbObPbQQt.#QtQtQtQtQt",
"QtQtQtQtQtQt#J.hbRbSbTbUbVbWbXbYbZb0b1b2b3b4b5b6Qt.#QtQtQtQtQtQt",
"QtQtQtQtQtQtQt#J.#b7b8b9c.c#cacbcccdcecfcgchas#J.#QtQtQtQtQtQtQt",
"QtQtQtQtQtQtQtQt.##Jcicjckclcmcncocpcqcrcjcs.b.#QtQtQtQtQtQtQtQt",
"QtQtQtQtQtQtQtQtQtQtctcccucvcwcxcyczcAcBcCcDQtQtQtQtQtQtQtQtQtQt",
"QtQtQt.#.#.#.#.#.#.#.#.#cEcFcGcHcIcJcKcLcM.#.#.#.#.#.#.#.#QtQtQt",
"QtQtQt.h.hb7cNasas.hasascOcLcPcQcRcScCcNasas.h.has.h.has.hcOQtQt",
"QtQtQtcTcUcVcWcXcYcZc0.9bZ.8c1c2c3c4c5c6c7c8c9.sd.d#dadbdcddQtQt",
"Qt#JasdedfdgdhdidjdkdldmdndodpdqdrdsdtdudvdwdxdydzdAdBdCdDdEdddF",
"QtdG.hdHdIdJdKdLdMdNdOdPdQdRdSdTdUdVdWdXdYdZd0d1d2d3d4d5d6d7d8cN",
"QtQtd9e.e#eaebecedeeefegeheiejekelemeneoepeqereseteuevewexeyd9Qt",
"QtQtQtc4ezeAeBeCeDeC.a.bc4eEeAeCc4eCeDeFeBeCeCeBeDeCc4.#c4d9QtQt",
"QtQtQtQtcNcNcNcNcNcNcOQtcOcOcNcNcOcNcNcOcNcNcNcNcNcNcOQtQtcOQtQt"};
